<svg width="32" height="32" viewBox="0 0 32 32" fill="none" xmlns="http://www.w3.org/2000/svg">
  <!-- White Circular Background -->
  <circle cx="16" cy="16" r="16" fill="white"/>
  
  <!-- House Frame (centered and slightly scaled) -->
  <g transform="translate(4, 4) scale(0.75)">
    <path d="M4 14L16 4L28 14V26C28 27.1046 27.1046 28 26 28H6C4.89543 28 4 27.1046 4 26V14Z" stroke="#166534" stroke-width="2.5" stroke-linecap="round" stroke-linejoin="round"/>
    <!-- Door/Base -->
    <path d="M13 28V23C13 21.3431 14.3431 20 16 20V20C17.6569 20 19 21.3431 19 23V28" stroke="#166534" stroke-width="2.5" stroke-linecap="round" stroke-linejoin="round"/>
    <!-- Plant/Leaves -->
    <path d="M16 20C16 20 12 15 12 13C12 11 14 10 16 10C18 10 20 11 20 13C20 15 16 20 16 20Z" fill="#166534"/>
    <path d="M16 18C16 18 19 14 22 14C24.5 14 25 16 24 18C23 20 16 20 16 20Z" fill="#166534"/>
    <path d="M16 18C16 18 13 14 10 14C7.5 14 7 16 8 18C9 20 16 20 16 20Z" fill="#166534"/>
  </g>
</svg>
